<svg version="1.1" xmlns="http://www.w3.org/2000/svg" xmlns:xlink="http://www.w3.org/1999/xlink" width="129.06516" height="169.3209" viewBox="0,0,129.06516,169.3209"><g transform="translate(-175.46742,-95.33955)"><g stroke-miterlimit="10"><path d="M180.46742,259.66045v-159.3209h85.4525l33.61266,37.06047v122.26043z" fill="#2a1180" fill-rule="nonzero" stroke="#7c61db" stroke-width="10"/><path d="M273.11839,143.86464c2.23245,1.01256 4.23081,2.37735 5.99492,4.09409c1.08888,1.33292 2.06372,2.74641 2.92435,4.24031c0.49875,1.05993 0.9374,2.13215 1.31596,3.21679c0.28995,1.35003 0.48486,2.71468 0.58487,4.09409c0.3034,1.5192 -0.08641,2.81074 -1.16974,3.87477c-1.67814,0.79191 -2.94541,0.37768 -3.80166,-1.24285c-0.09914,-1.21872 -0.22108,-2.43716 -0.36554,-3.65544c-0.05936,-0.47404 -0.18116,-0.91269 -0.36554,-1.31596c-0.24214,-1.11681 -0.68079,-2.14033 -1.31596,-3.07057c-0.8814,-1.66527 -2.09998,-3.03007 -3.65544,-4.09409c-2.57285,-1.65094 -5.39967,-2.30892 -8.48062,-1.97394c-4.71903,0.89339 -7.88713,3.59842 -9.50415,8.11508c-0.73913,1.86179 -1.08026,3.81131 -1.02352,5.84871c-0.77071,1.57345 -1.98929,2.06079 -3.65544,1.46218c-0.74352,-0.40956 -1.20659,-1.04312 -1.38907,-1.90083c-0.09548,-0.93024 -0.07121,-1.85623 0.07311,-2.77814c0.07574,-1.2563 0.31949,-2.47473 0.73109,-3.65544c0.35268,-1.15556 0.79133,-2.27661 1.31596,-3.36301c5.21017,-8.1819 12.47237,-10.81382 21.78643,-7.89575z" fill="#d9d5e5" fill-rule="evenodd" stroke="none" stroke-width="1"/><path d="M269.17052,160.38724c0.03056,0.20792 0.10367,0.40283 0.21933,0.58487c0.39566,1.64436 -0.1161,2.88721 -1.53529,3.72855c-2.18522,0.66266 -3.59871,-0.0927 -4.24031,-2.26637c-0.04913,-1.04736 0.292,-1.94908 1.02352,-2.70503c1.68633,-1.02733 3.1972,-0.808 4.53275,0.65798z" fill="#d7d4e4" fill-rule="evenodd" stroke="none" stroke-width="1"/><path d="M241.38916,170.47625c2.45192,0.44699 4.69403,1.37313 6.72601,2.77814c1.93139,1.54128 3.49109,3.39342 4.67896,5.55627c0.5546,1.22516 0.99326,2.49228 1.31596,3.80166c0.25047,0.8621 0.44538,1.73941 0.58487,2.63192c0.11346,1.16609 0.1623,2.33583 0.14622,3.50922c0.07574,1.50984 0.12443,3.02071 0.14622,4.53275c-0.0019,1.80506 0.04694,3.60836 0.14622,5.41005c0.05878,1.79453 0.35121,3.54914 0.87731,5.26384c0.13759,0.22664 0.23497,0.47024 0.29244,0.73109c0.77583,2.04178 2.0431,3.69901 3.80166,4.9714c3.28639,2.43511 6.89299,2.99571 10.82011,1.6815c3.83266,-1.46876 6.31836,-4.17378 7.4571,-8.11508c0.51264,-2.16168 0.70755,-4.35495 0.58487,-6.57979v-6.43358v-5.41005v-4.53275v-3.50922c-0.02427,-0.78139 0.00015,-1.56117 0.07311,-2.33948c0.08217,-0.1642 0.16333,-0.32665 0.24374,-0.48749l0.1218,-0.2436c0.73869,-0.94383 1.71352,-1.28511 2.92435,-1.02352c1.03771,0.30662 1.67141,0.98902 1.90083,2.04705v3.65544v4.53275v5.41005v6.43358v4.24031c-0.09709,0.72714 -0.14578,1.45823 -0.14622,2.19326c-0.24214,1.26215 -0.48588,2.52942 -0.73109,3.80166c-0.45006,1.29169 -0.98624,2.55896 -1.60839,3.80166c-0.48471,0.86956 -1.04516,1.69803 -1.6815,2.4857c-0.7365,0.71193 -1.44317,1.44302 -2.12016,2.19326c-3.17322,2.45514 -6.77982,3.72241 -10.82011,3.80166c-2.06167,0.10308 -4.06003,-0.18935 -5.99492,-0.87731c-1.42167,-0.49144 -2.73763,-1.17369 -3.94788,-2.04705c-1.01826,-0.77451 -1.9444,-1.65182 -2.77814,-2.63192c-0.44041,-0.59043 -0.87906,-1.1753 -1.31596,-1.75461c-0.62771,-1.2063 -1.21258,-2.42473 -1.75461,-3.65544c-0.01886,-0.25091 -0.06755,-0.49465 -0.14622,-0.73109c-0.57756,-1.61307 -0.96738,-3.2703 -1.16974,-4.9714c-0.08247,-1.82582 -0.17999,-3.62927 -0.29244,-5.41005c0.04811,-2.17031 -0.00058,-4.31488 -0.14622,-6.43358c0.04723,-0.95363 -0.00146,-1.87963 -0.14622,-2.77814c-0.0057,-0.61894 -0.10308,-1.20381 -0.29244,-1.75461c-0.17648,-1.31216 -0.66397,-2.4819 -1.46218,-3.50922c-1.59597,-2.50705 -3.88676,-3.9935 -6.87223,-4.45964c-5.91143,-0.61485 -9.93242,1.84644 -12.06296,7.38399c-0.35838,0.94588 -0.57771,1.92057 -0.65798,2.92435c-0.14549,1.77728 -0.19432,3.58072 -0.14622,5.41005v2.92435v3.65544v4.38653v5.55627v6.28736c-0.34844,1.97935 -1.51818,2.78355 -3.50922,2.41259c-0.45284,-0.18614 -0.8428,-0.4543 -1.16974,-0.8042c-0.16859,-0.33732 -0.33922,-0.67845 -0.51176,-1.02352c-0.07311,-1.65635 -0.09753,-3.31358 -0.07311,-4.9714v-5.55627v-4.38653v-3.65544v-2.92435v-4.24031c0.22751,-2.3696 -0.16245,-4.61156 -1.16974,-6.72601c-0.68737,-1.75739 -1.75958,-3.21957 -3.21679,-4.38653c-1.31347,-1.21244 -2.87303,-1.96794 -4.67896,-2.26637c-6.20007,-0.75302 -10.14794,1.85448 -11.84363,7.82264c-0.60578,1.93387 -0.84952,3.93223 -0.73109,5.99492v7.16466v4.24031v2.92435v3.65544v4.53275c0.04957,1.03434 -0.02354,2.05787 -0.21933,3.07057c-0.89295,1.61351 -2.18449,2.02775 -3.87477,1.24285c-0.76428,-0.62684 -1.15424,-1.43103 -1.16974,-2.41259v-4.53275v-3.50922v-2.92435v-4.24031v-7.16466c-0.00366,-1.85389 0.04504,-3.70589 0.14622,-5.55627c0.14753,-1.22677 0.34259,-2.4452 0.58487,-3.65544c0.6628,-2.29956 1.63764,-4.44399 2.92435,-6.43358c3.88968,-4.49839 8.81239,-6.35052 14.76798,-5.55627c2.65882,0.51293 5.14452,1.48776 7.4571,2.92435c1.35763,1.0652 2.57606,2.28363 3.65544,3.65544c4.05403,-5.29162 9.41539,-7.6311 16.08394,-7.01845z" fill="#d9d5e5" fill-rule="nonzero" stroke="none" stroke-width="1"/></g></g></svg>