<svg version="1.1" xmlns="http://www.w3.org/2000/svg" xmlns:xlink="http://www.w3.org/1999/xlink" width="129.06516" height="169.3209" viewBox="0,0,129.06516,169.3209"><g transform="translate(-175.46742,-95.33955)"><g><path d="M180.46742,259.66045v-159.3209h85.4525l33.61266,37.06047v122.26043z" fill="none" fill-rule="nonzero" stroke="#000000" stroke-width="10" stroke-miterlimit="10"/><g fill="#000000" stroke="none"><g><path d="M214.35859,151.85717l0.29627,0.26335v1.44845v7.1435v17.16745v20.06436l-0.1646,0.14814l-3.42361,0.26335l-0.23044,-0.39503v-0.01646v-45.82377l0.29627,-0.26335z" fill-rule="nonzero" stroke-width="1" stroke-miterlimit="10"/><path d="M222.06172,157.89787c5.92544,1.72831 8.88819,4.29603 8.88823,7.70313c-0.00004,3.60471 -1.51433,6.58391 -4.52641,8.95407h-0.14814l-1.1028,-1.1851c1.50602,-1.20975 2.25494,-2.84749 2.25498,-4.92145c-0.00004,-1.72822 -2.81464,-3.46472 -8.44382,-5.21772c-2.27146,-1.03691 -3.71169,-1.87636 -4.3289,-2.51833v-7.1435c0.66659,1.33329 3.13554,2.77351 7.40686,4.3289z" fill-rule="evenodd" stroke-width="1.5" stroke-miterlimit="4"/><path d="M203.98899,195.59055c2.37017,0.00001 4.64984,0.79008 6.84723,2.37019h3.81865v2.22206c-0.00003,3.7775 -2.76525,6.22999 -8.29568,7.34102h-2.10684c-5.97487,0 -8.97053,-2.07392 -8.97053,-6.22176c-0.00001,-3.23432 2.61708,-5.14364 7.85127,-5.71151z" fill-rule="nonzero" stroke-width="1" stroke-miterlimit="10"/></g><g><path d="M245.61953,131.84675l0.29628,0.26336v1.44845v7.14351v17.16746v20.06435l-0.1646,0.14814l-3.42362,0.26335l-0.23043,-0.39503v-0.01646v-45.82376l0.29627,-0.26336z" fill-rule="nonzero" stroke-width="1" stroke-miterlimit="10"/><path d="M253.32266,137.88745c5.92544,1.72832 8.88819,4.29602 8.88823,7.70313c-0.00004,3.60471 -1.51432,6.5839 -4.52641,8.95407h-0.14814l-1.1028,-1.1851c1.50602,-1.20976 2.25494,-2.84749 2.25498,-4.92144c-0.00004,-1.72823 -2.81464,-3.46472 -8.44382,-5.21772c-2.27146,-1.03691 -3.71168,-1.87636 -4.32889,-2.51834v-7.14351c0.66659,1.33328 3.13554,2.77351 7.40685,4.3289z" fill-rule="evenodd" stroke-width="1.5" stroke-miterlimit="4"/><path d="M235.24993,175.58013c2.37017,0.00001 4.64984,0.79008 6.84723,2.3702h3.81865v2.22205c-0.00003,3.7775 -2.76526,6.23 -8.29569,7.34102h-2.10684c-5.97487,0 -8.97053,-2.07392 -8.97053,-6.22176c0,-3.23432 2.61708,-5.14364 7.85127,-5.71151z" fill-rule="nonzero" stroke-width="1" stroke-miterlimit="10"/></g><g><path d="M268.12683,172.4866l0.29628,0.26336v1.44845v7.14351v17.16746v20.06435l-0.1646,0.14814l-3.42362,0.26335l-0.23043,-0.39503v-0.01646v-45.82376l0.29628,-0.26336z" fill-rule="nonzero" stroke-width="1" stroke-miterlimit="10"/><path d="M275.82996,178.5273c5.92544,1.72832 8.88819,4.29602 8.88823,7.70313c-0.00004,3.60471 -1.51432,6.5839 -4.52641,8.95407h-0.14814l-1.1028,-1.1851c1.50602,-1.20976 2.25494,-2.84749 2.25498,-4.92144c-0.00004,-1.72823 -2.81465,-3.46472 -8.44382,-5.21772c-2.27147,-1.03691 -3.71168,-1.87636 -4.32889,-2.51834v-7.14351c0.66659,1.33328 3.13554,2.77351 7.40685,4.3289z" fill-rule="evenodd" stroke-width="1.5" stroke-miterlimit="4"/><path d="M257.75722,216.21998c2.37017,0.00001 4.64984,0.79008 6.84723,2.3702h3.81865v2.22205c-0.00003,3.7775 -2.76526,6.23 -8.29569,7.34102h-2.10684c-5.97487,0 -8.97053,-2.07392 -8.97052,-6.22176c0,-3.23432 2.61708,-5.14364 7.85127,-5.71151z" fill-rule="nonzero" stroke-width="1" stroke-miterlimit="10"/></g></g></g></g></svg>