<svg version="1.1" xmlns="http://www.w3.org/2000/svg" xmlns:xlink="http://www.w3.org/1999/xlink" width="129.06516" height="169.3209" viewBox="0,0,129.06516,169.3209"><g transform="translate(-175.46742,-95.33955)"><g stroke-miterlimit="10"><path d="M180.46742,259.66045v-159.3209h85.4525l33.61266,37.06047v122.26043z" fill="none" stroke="#000000" stroke-width="10"/><g fill="#000000" stroke="none" stroke-width="1"><path d="M193.90765,208.18679h30.16718c2.53767,0 4.01366,2.18809 4.01366,4.7905v29.64929h-8.41574v-25.76511h-4.91997v25.76511h-7.6389v-25.76511h-4.7905v25.76511h-8.41574z"/><path d="M232.23163,242.62658v-34.43979h8.41574v34.43979z"/><path d="M244.66102,208.18679h24.98827c2.53767,0 4.01366,2.18809 4.01366,4.7905v25.37669c0,3.22388 -1.34652,4.27261 -4.27261,4.27261h-24.72932v-21.88092h8.54521v13.46518h12.04098v-18.25568h-20.58619z"/><path d="M277.54714,242.62658v-34.43979h8.54521v34.43979z"/></g></g></g></svg>